<svg id="272f5edf-944d-4cca-8a78-a575c6aeca96" data-name="Calque 1" xmlns="http://www.w3.org/2000/svg" xmlns:xlink="http://www.w3.org/1999/xlink" viewBox="0 0 495 195.44"><defs><radialGradient id="b5746074-e2fc-4648-94af-c4e5731ce462" cx="413.5" cy="329.5" r="81.5" gradientTransform="translate(0 145.32) scale(1 0.12)" gradientUnits="userSpaceOnUse"><stop offset="0" stop-opacity="0.4"/><stop offset="0.07" stop-opacity="0.34"/><stop offset="1" stop-opacity="0"/></radialGradient><radialGradient id="112c5fd9-773c-49d5-a916-5ed0830c81b6" cx="81.5" cy="321.3" r="81.5" xlink:href="#b5746074-e2fc-4648-94af-c4e5731ce462"/><radialGradient id="4d2b5676-d12a-4017-900c-e85deb477019" cx="161.5" cy="329.5" r="81.5" xlink:href="#b5746074-e2fc-4648-94af-c4e5731ce462"/><radialGradient id="a2a48084-f2c9-4b25-adc6-8b412c327276" cx="246.5" cy="329.5" r="81.5" xlink:href="#b5746074-e2fc-4648-94af-c4e5731ce462"/><linearGradient id="363d7db3-9c74-414a-bc93-7bf69f5e0dd9" x1="157.18" y1="185.66" x2="250.55" y2="-0.12" gradientUnits="userSpaceOnUse"><stop offset="0" stop-color="#611fa6"/><stop offset="0.13" stop-color="#6621af"/><stop offset="0.35" stop-color="#7526c9"/><stop offset="0.5" stop-color="#812add"/><stop offset="0.89" stop-color="#9756dd"/><stop offset="1" stop-color="#9e63dd"/></linearGradient><linearGradient id="2bcebc3d-00c2-4442-930a-24e3b8d7e773" x1="71.55" y1="184.55" x2="166.34" y2="0.66" gradientUnits="userSpaceOnUse"><stop offset="0" stop-color="#1f59a6"/><stop offset="0.13" stop-color="#215eaf"/><stop offset="0.33" stop-color="#256cc9"/><stop offset="0.5" stop-color="#2a7ae2"/><stop offset="1" stop-color="#669ce2"/></linearGradient><linearGradient id="14ec009b-e0cb-4e90-86db-78437ea945e0" x1="331.56" y1="2.78" x2="419.06" y2="187.78" gradientUnits="userSpaceOnUse"><stop offset="0" stop-color="#861fa6"/><stop offset="0.08" stop-color="#8e21af"/><stop offset="0.22" stop-color="#a225c9"/><stop offset="0.34" stop-color="#b72ae2"/></linearGradient><linearGradient id="d791498f-f6a6-42ad-aeb9-3bd0f65763bb" x1="244.7" y1="183.21" x2="334.27" y2="-0.2" gradientUnits="userSpaceOnUse"><stop offset="0" stop-color="#861fa6"/><stop offset="0.13" stop-color="#8e21af"/><stop offset="0.33" stop-color="#a225c9"/><stop offset="0.5" stop-color="#b72ae2"/><stop offset="0.8" stop-color="#bf4de2"/><stop offset="1" stop-color="#c566e2"/></linearGradient></defs><title>Logo</title><ellipse cx="413.5" cy="185.5" rx="81.5" ry="9.94" style="fill:url(#b5746074-e2fc-4648-94af-c4e5731ce462)"/><ellipse cx="81.5" cy="184.5" rx="81.5" ry="9.94" style="fill:url(#112c5fd9-773c-49d5-a916-5ed0830c81b6)"/><ellipse cx="161.5" cy="185.5" rx="81.5" ry="9.94" style="fill:url(#4d2b5676-d12a-4017-900c-e85deb477019)"/><ellipse cx="246.5" cy="185.5" rx="81.5" ry="9.94" style="fill:url(#a2a48084-f2c9-4b25-adc6-8b412c327276)"/><rect x="131" width="61" height="185" style="fill:#194885"/><polygon points="277 0 216 0 131 185 192 185 277 0" style="fill:url(#363d7db3-9c74-414a-bc93-7bf69f5e0dd9)"/><polygon points="192 0 131 0 46 185 107 185 192 0" style="fill:url(#2bcebc3d-00c2-4442-930a-24e3b8d7e773)"/><polygon points="301 0 362 0 447 185 386 185 301 0" style="fill:url(#14ec009b-e0cb-4e90-86db-78437ea945e0)"/><polygon points="362 0 301 0 216 185 277 185 362 0" style="fill:url(#d791498f-f6a6-42ad-aeb9-3bd0f65763bb)"/></svg>